<svg width="31" height="30" viewBox="0 0 31 30" fill="none" xmlns="http://www.w3.org/2000/svg">
<path d="M28.8838 14.1165L20.1338 5.36652C19.898 5.13882 19.5822 5.01282 19.2545 5.01567C18.9268 5.01852 18.6132 5.14998 18.3815 5.38174C18.1497 5.6135 18.0183 5.92702 18.0154 6.25476C18.0126 6.58251 18.1386 6.89826 18.3663 7.13401L24.9825 13.7503H3C2.66848 13.7503 2.35054 13.882 2.11612 14.1164C1.8817 14.3508 1.75 14.6687 1.75 15.0003C1.75 15.3318 1.8817 15.6497 2.11612 15.8841C2.35054 16.1186 2.66848 16.2503 3 16.2503H24.9825L18.3663 22.8665C18.2469 22.9818 18.1516 23.1198 18.0861 23.2723C18.0206 23.4248 17.9861 23.5888 17.9847 23.7548C17.9832 23.9207 18.0149 24.0853 18.0777 24.239C18.1406 24.3926 18.2334 24.5321 18.3508 24.6495C18.4681 24.7669 18.6077 24.8597 18.7613 24.9225C18.9149 24.9854 19.0795 25.017 19.2455 25.0156C19.4115 25.0141 19.5755 24.9797 19.728 24.9141C19.8805 24.8486 20.0184 24.7534 20.1338 24.634L28.8838 15.884C29.1181 15.6496 29.2497 15.3317 29.2497 15.0003C29.2497 14.6688 29.1181 14.3509 28.8838 14.1165Z" fill="url(#paint0_linear_54627_629)"/>
<defs>
<linearGradient id="paint0_linear_54627_629" x1="15.4999" y1="25.0156" x2="15.4999" y2="5.01562" gradientUnits="userSpaceOnUse">
<stop stop-color="#000E38"/>
<stop offset="1" stop-color="#3F186A"/>
</linearGradient>
</defs>
</svg>
